<svg id="svg" version="1.1" xmlns="http://www.w3.org/2000/svg" xmlns:xlink="http://www.w3.org/1999/xlink" width="400" height="400" viewBox="0, 0, 400,400"><g id="svgg"><path id="path0" d="M24.400 0.293 C 23.630 0.383,22.829 0.624,22.620 0.829 C 22.411 1.033,21.916 1.200,21.520 1.200 C 21.124 1.200,20.800 1.380,20.800 1.600 C 20.800 1.820,20.361 2.000,19.824 2.000 C 19.287 2.000,18.736 2.180,18.600 2.400 C 18.464 2.620,18.043 2.800,17.665 2.800 C 17.286 2.800,16.717 3.160,16.400 3.600 C 16.083 4.040,15.503 4.400,15.112 4.400 C 14.720 4.400,14.400 4.550,14.400 4.732 C 14.400 4.915,13.905 5.320,13.300 5.632 C 11.875 6.368,6.368 11.875,5.632 13.300 C 5.320 13.905,4.915 14.400,4.732 14.400 C 4.550 14.400,4.400 14.720,4.400 15.112 C 4.400 15.503,4.040 16.083,3.600 16.400 C 3.160 16.717,2.800 17.286,2.800 17.665 C 2.800 18.043,2.620 18.464,2.400 18.600 C 2.180 18.736,2.000 19.287,2.000 19.824 C 2.000 20.361,1.820 20.800,1.600 20.800 C 1.380 20.800,1.200 21.124,1.200 21.520 C 1.200 21.916,0.975 22.465,0.700 22.740 C 0.302 23.138,0.200 55.823,0.200 183.487 C 0.200 311.328,0.301 343.767,0.700 343.900 C 0.975 343.992,1.200 344.592,1.200 345.233 C 1.200 345.875,1.380 346.400,1.600 346.400 C 1.820 346.400,2.000 346.760,2.000 347.200 C 2.000 347.640,2.180 348.000,2.400 348.000 C 2.620 348.000,2.800 348.360,2.800 348.800 C 2.800 349.240,2.980 349.600,3.200 349.600 C 3.420 349.600,3.600 349.920,3.600 350.312 C 3.600 350.703,3.960 351.283,4.400 351.600 C 4.840 351.917,5.200 352.404,5.200 352.681 C 5.200 352.959,5.695 353.747,6.300 354.433 C 8.460 356.881,11.125 359.600,11.364 359.600 C 11.498 359.600,12.172 360.140,12.863 360.800 C 13.554 361.460,14.362 362.000,14.659 362.000 C 14.957 362.000,15.200 362.180,15.200 362.400 C 15.200 362.620,15.560 362.800,16.000 362.800 C 16.440 362.800,16.801 362.935,16.803 363.100 C 16.807 363.459,18.744 364.400,19.480 364.400 C 19.766 364.400,20.000 364.580,20.000 364.800 C 20.000 365.020,20.360 365.200,20.800 365.200 C 21.240 365.200,21.600 365.380,21.600 365.600 C 21.600 365.820,22.140 366.000,22.800 366.000 C 23.460 366.000,24.000 366.180,24.000 366.400 C 24.000 366.620,24.540 366.800,25.200 366.800 C 25.860 366.800,26.400 366.980,26.400 367.200 C 26.400 367.420,26.839 367.600,27.376 367.600 C 27.913 367.600,28.464 367.780,28.600 368.000 C 28.736 368.220,29.287 368.400,29.824 368.400 C 30.361 368.400,30.800 368.580,30.800 368.800 C 30.800 369.020,31.340 369.200,32.000 369.200 C 32.660 369.200,33.200 369.380,33.200 369.600 C 33.200 369.820,33.740 370.000,34.400 370.000 C 35.060 370.000,35.600 370.180,35.600 370.400 C 35.600 370.620,36.140 370.800,36.800 370.800 C 37.460 370.800,38.000 370.980,38.000 371.200 C 38.000 371.420,38.540 371.600,39.200 371.600 C 39.860 371.600,40.400 371.780,40.400 372.000 C 40.400 372.220,40.940 372.400,41.600 372.400 C 42.260 372.400,42.800 372.580,42.800 372.800 C 42.800 373.020,43.115 373.205,43.500 373.210 C 43.885 373.216,45.544 373.666,47.186 374.210 C 48.828 374.755,50.583 375.200,51.086 375.200 C 51.589 375.200,52.000 375.380,52.000 375.600 C 52.000 375.820,52.540 376.000,53.200 376.000 C 53.860 376.000,54.400 376.180,54.400 376.400 C 54.400 376.620,54.940 376.800,55.600 376.800 C 56.260 376.800,56.800 376.980,56.800 377.200 C 56.800 377.420,57.340 377.600,58.000 377.600 C 58.660 377.600,59.200 377.780,59.200 378.000 C 59.200 378.220,59.650 378.400,60.200 378.400 C 60.750 378.400,61.200 378.580,61.200 378.800 C 61.200 379.020,61.740 379.200,62.400 379.200 C 63.060 379.200,63.600 379.380,63.600 379.600 C 63.600 379.820,64.140 380.000,64.800 380.000 C 65.460 380.000,66.000 380.180,66.000 380.400 C 66.000 380.620,66.540 380.800,67.200 380.800 C 67.860 380.800,68.400 380.980,68.400 381.200 C 68.400 381.420,68.940 381.600,69.600 381.600 C 70.260 381.600,70.800 381.780,70.800 382.000 C 70.800 382.220,71.340 382.400,72.000 382.400 C 72.660 382.400,73.200 382.580,73.200 382.800 C 73.200 383.020,73.740 383.200,74.400 383.200 C 75.060 383.200,75.600 383.380,75.600 383.600 C 75.600 383.820,76.039 384.000,76.576 384.000 C 77.113 384.000,77.664 384.180,77.800 384.400 C 77.936 384.620,78.476 384.800,79.000 384.800 C 79.524 384.800,80.064 384.980,80.200 385.200 C 80.336 385.420,80.887 385.600,81.424 385.600 C 81.961 385.600,82.400 385.780,82.400 386.000 C 82.400 386.220,82.940 386.400,83.600 386.400 C 84.260 386.400,84.800 386.580,84.800 386.800 C 84.800 387.020,85.340 387.200,86.000 387.200 C 86.660 387.200,87.200 387.380,87.200 387.600 C 87.200 387.820,87.740 388.000,88.400 388.000 C 89.060 388.000,89.600 388.180,89.600 388.400 C 89.600 388.620,90.140 388.800,90.800 388.800 C 91.460 388.800,92.000 388.980,92.000 389.200 C 92.000 389.420,92.283 389.600,92.629 389.600 C 92.976 389.600,94.599 390.050,96.238 390.600 C 97.876 391.150,99.663 391.600,100.208 391.600 C 100.754 391.600,101.200 391.780,101.200 392.000 C 101.200 392.220,101.740 392.400,102.400 392.400 C 103.060 392.400,103.600 392.580,103.600 392.800 C 103.600 393.020,104.140 393.200,104.800 393.200 C 105.460 393.200,106.000 393.380,106.000 393.600 C 106.000 393.820,106.540 394.000,107.200 394.000 C 107.860 394.000,108.400 394.180,108.400 394.400 C 108.400 394.620,108.839 394.800,109.376 394.800 C 109.913 394.800,110.464 394.980,110.600 395.200 C 110.736 395.420,111.287 395.600,111.824 395.600 C 112.361 395.600,112.800 395.780,112.800 396.000 C 112.800 396.220,113.340 396.400,114.000 396.400 C 114.660 396.400,115.200 396.580,115.200 396.800 C 115.200 397.020,115.740 397.200,116.400 397.200 C 117.060 397.200,117.600 397.380,117.600 397.600 C 117.600 397.820,118.140 398.000,118.800 398.000 C 119.460 398.000,120.000 398.180,120.000 398.400 C 120.000 398.620,120.525 398.800,121.167 398.800 C 121.808 398.800,122.408 399.025,122.500 399.300 C 122.742 400.026,143.658 400.026,143.900 399.300 C 143.992 399.025,144.491 398.800,145.010 398.800 C 145.528 398.800,146.064 398.620,146.200 398.400 C 146.336 398.180,146.797 398.000,147.224 398.000 C 147.651 398.000,148.000 397.820,148.000 397.600 C 148.000 397.380,148.360 397.200,148.800 397.200 C 149.240 397.200,149.600 397.020,149.600 396.800 C 149.600 396.580,149.920 396.400,150.312 396.400 C 150.703 396.400,151.283 396.040,151.600 395.600 C 151.917 395.160,152.425 394.800,152.728 394.800 C 153.031 394.800,153.783 394.260,154.400 393.600 C 155.017 392.940,155.674 392.400,155.860 392.399 C 156.047 392.398,156.920 391.581,157.800 390.583 C 158.680 389.585,159.985 388.111,160.700 387.306 C 161.415 386.502,162.000 385.609,162.000 385.322 C 162.000 385.035,162.180 384.800,162.400 384.800 C 162.620 384.800,162.800 384.440,162.800 384.000 C 162.800 383.560,162.980 383.200,163.200 383.200 C 163.420 383.200,163.600 382.840,163.600 382.400 C 163.600 381.960,163.780 381.600,164.000 381.600 C 164.220 381.600,164.400 381.240,164.400 380.800 C 164.400 380.360,164.580 380.000,164.800 380.000 C 165.020 380.000,165.200 379.561,165.200 379.024 C 165.200 378.487,165.380 377.936,165.600 377.800 C 165.820 377.664,166.000 377.023,166.000 376.376 C 166.000 375.729,166.180 375.200,166.400 375.200 C 166.620 375.200,166.800 374.311,166.800 373.224 C 166.800 372.137,166.980 371.136,167.200 371.000 C 167.450 370.846,167.600 366.929,167.600 360.576 L 167.600 350.400 196.800 350.400 C 216.000 350.400,226.000 350.263,226.000 350.000 C 226.000 349.780,226.709 349.600,227.576 349.600 C 228.443 349.600,229.264 349.420,229.400 349.200 C 229.536 348.980,230.267 348.800,231.024 348.800 C 231.781 348.800,232.400 348.620,232.400 348.400 C 232.400 348.180,232.940 348.000,233.600 348.000 C 234.260 348.000,234.800 347.820,234.800 347.600 C 234.800 347.380,235.149 347.200,235.576 347.200 C 236.003 347.200,236.464 347.020,236.600 346.800 C 236.736 346.580,237.197 346.400,237.624 346.400 C 238.051 346.400,238.400 346.220,238.400 346.000 C 238.400 345.780,238.760 345.600,239.200 345.600 C 239.640 345.600,240.000 345.420,240.000 345.200 C 240.000 344.980,240.320 344.800,240.712 344.800 C 241.103 344.800,241.683 344.440,242.000 344.000 C 242.317 343.560,242.897 343.200,243.288 343.200 C 243.680 343.200,244.000 343.020,244.000 342.800 C 244.000 342.580,244.193 342.400,244.428 342.400 C 245.768 342.400,256.400 333.167,256.400 332.003 C 256.400 331.757,256.874 331.118,258.393 329.317 C 258.617 329.051,258.800 328.596,258.800 328.305 C 258.800 328.014,259.160 327.517,259.600 327.200 C 260.040 326.883,260.400 326.303,260.400 325.912 C 260.400 325.520,260.546 325.200,260.725 325.200 C 260.904 325.200,261.298 324.570,261.600 323.800 C 261.902 323.030,262.296 322.400,262.475 322.400 C 262.654 322.400,262.800 322.040,262.800 321.600 C 262.800 321.160,262.980 320.800,263.200 320.800 C 263.420 320.800,263.600 320.260,263.600 319.600 C 263.600 318.940,263.780 318.400,264.000 318.400 C 264.220 318.400,264.400 318.051,264.400 317.624 C 264.400 317.197,264.580 316.736,264.800 316.600 C 265.020 316.464,265.200 315.733,265.200 314.976 C 265.200 314.219,265.380 313.600,265.600 313.600 C 265.820 313.600,266.000 312.880,266.000 312.000 C 266.000 311.120,266.180 310.400,266.400 310.400 C 266.622 310.400,266.800 309.341,266.800 308.024 C 266.800 306.717,266.980 305.536,267.200 305.400 C 267.753 305.058,267.753 230.000,267.200 230.000 C 266.980 230.000,266.800 229.477,266.800 228.838 C 266.800 227.716,265.314 224.339,264.700 224.067 C 264.535 223.993,264.400 223.707,264.400 223.430 C 264.400 222.730,261.002 219.200,260.328 219.200 C 260.025 219.200,259.517 218.840,259.200 218.400 C 258.883 217.960,258.303 217.600,257.912 217.600 C 257.520 217.600,257.200 217.420,257.200 217.200 C 257.200 216.980,256.671 216.800,256.024 216.800 C 255.377 216.800,254.736 216.620,254.600 216.400 C 254.460 216.173,252.470 216.000,250.000 216.000 C 247.530 216.000,245.540 216.173,245.400 216.400 C 245.264 216.620,244.623 216.800,243.976 216.800 C 243.329 216.800,242.800 216.980,242.800 217.200 C 242.800 217.420,242.480 217.600,242.088 217.600 C 241.697 217.600,241.117 217.960,240.800 218.400 C 240.483 218.840,239.988 219.200,239.701 219.200 C 238.991 219.200,235.600 222.636,235.600 223.356 C 235.600 223.674,235.465 223.993,235.300 224.067 C 234.686 224.339,233.200 227.716,233.200 228.838 C 233.200 229.477,233.020 230.000,232.800 230.000 C 232.536 230.000,232.400 242.533,232.400 266.800 C 232.400 291.067,232.264 303.600,232.000 303.600 C 231.780 303.600,231.600 304.140,231.600 304.800 C 231.600 305.460,231.420 306.000,231.200 306.000 C 230.980 306.000,230.800 306.360,230.800 306.800 C 230.800 307.240,230.620 307.600,230.400 307.600 C 230.180 307.600,230.000 307.843,230.000 308.139 C 230.000 308.436,228.955 309.651,227.677 310.839 C 224.415 313.875,223.698 314.400,222.819 314.400 C 222.395 314.400,221.936 314.580,221.800 314.800 C 221.664 315.020,221.023 315.200,220.376 315.200 C 219.729 315.200,219.200 315.380,219.200 315.600 C 219.200 315.863,210.333 316.000,193.400 316.000 L 167.600 316.000 167.600 189.224 C 167.600 105.137,167.465 62.364,167.200 62.200 C 166.980 62.064,166.800 61.164,166.800 60.200 C 166.800 59.236,166.620 58.336,166.400 58.200 C 166.180 58.064,166.000 57.333,166.000 56.576 C 166.000 55.819,165.820 55.200,165.600 55.200 C 165.380 55.200,165.200 54.761,165.200 54.224 C 165.200 53.687,165.020 53.136,164.800 53.000 C 164.580 52.864,164.400 52.403,164.400 51.976 C 164.400 51.549,164.220 51.200,164.000 51.200 C 163.780 51.200,163.600 50.964,163.600 50.675 C 163.600 50.387,163.240 49.764,162.800 49.292 C 162.360 48.820,162.000 48.196,162.000 47.905 C 162.000 47.614,161.640 47.117,161.200 46.800 C 160.760 46.483,160.400 45.999,160.400 45.725 C 160.400 45.112,154.941 39.600,154.333 39.600 C 154.092 39.600,153.603 39.284,153.247 38.897 C 152.891 38.511,152.105 37.940,151.500 37.630 C 150.895 37.319,150.400 36.915,150.400 36.732 C 150.400 36.550,150.040 36.400,149.600 36.400 C 149.160 36.400,148.800 36.220,148.800 36.000 C 148.800 35.780,148.440 35.600,148.000 35.600 C 147.560 35.600,147.200 35.420,147.200 35.200 C 147.200 34.980,146.660 34.800,146.000 34.800 C 145.340 34.800,144.800 34.620,144.800 34.400 C 144.800 34.136,157.467 34.000,182.000 34.000 C 206.533 34.000,219.200 34.136,219.200 34.400 C 219.200 34.620,219.729 34.800,220.376 34.800 C 221.023 34.800,221.664 34.980,221.800 35.200 C 221.936 35.420,222.395 35.600,222.819 35.600 C 223.698 35.600,224.415 36.125,227.677 39.161 C 228.955 40.349,230.000 41.564,230.000 41.861 C 230.000 42.157,230.180 42.400,230.400 42.400 C 230.620 42.400,230.800 42.760,230.800 43.200 C 230.800 43.640,230.980 44.000,231.200 44.000 C 231.420 44.000,231.600 44.540,231.600 45.200 C 231.600 45.860,231.780 46.400,232.000 46.400 C 232.263 46.400,232.400 56.125,232.400 74.776 C 232.400 93.263,232.539 103.239,232.800 103.400 C 233.020 103.536,233.200 104.267,233.200 105.024 C 233.200 105.781,233.380 106.400,233.600 106.400 C 233.820 106.400,234.000 106.760,234.000 107.200 C 234.000 107.640,234.180 108.000,234.400 108.000 C 234.620 108.000,234.800 108.267,234.800 108.593 C 234.800 109.782,240.218 115.200,241.407 115.200 C 241.733 115.200,242.000 115.380,242.000 115.600 C 242.000 115.820,242.360 116.000,242.800 116.000 C 243.240 116.000,243.600 116.180,243.600 116.400 C 243.600 116.620,244.219 116.800,244.976 116.800 C 245.733 116.800,246.464 116.980,246.600 117.200 C 246.922 117.722,253.078 117.722,253.400 117.200 C 253.536 116.980,254.267 116.800,255.024 116.800 C 255.781 116.800,256.400 116.620,256.400 116.400 C 256.400 116.180,256.760 116.000,257.200 116.000 C 257.640 116.000,258.000 115.820,258.000 115.600 C 258.000 115.380,258.288 115.200,258.640 115.200 C 258.991 115.200,259.756 114.694,260.340 114.075 C 260.923 113.457,261.715 112.833,262.100 112.688 C 262.485 112.543,262.800 112.222,262.800 111.973 C 262.800 111.724,263.340 111.017,264.000 110.400 C 264.660 109.783,265.200 108.991,265.200 108.640 C 265.200 108.288,265.380 108.000,265.600 108.000 C 265.820 108.000,266.000 107.640,266.000 107.200 C 266.000 106.760,266.180 106.400,266.400 106.400 C 266.620 106.400,266.800 105.781,266.800 105.024 C 266.800 104.267,266.980 103.536,267.200 103.400 C 267.751 103.059,267.751 44.941,267.200 44.600 C 266.980 44.464,266.800 43.283,266.800 41.976 C 266.800 40.659,266.622 39.600,266.400 39.600 C 266.180 39.600,266.000 38.880,266.000 38.000 C 266.000 37.120,265.820 36.400,265.600 36.400 C 265.380 36.400,265.200 35.858,265.200 35.195 C 265.200 34.532,265.020 33.632,264.800 33.195 C 264.580 32.758,264.220 32.042,264.000 31.605 C 263.780 31.168,263.600 30.448,263.600 30.005 C 263.600 29.562,263.420 29.200,263.200 29.200 C 262.980 29.200,262.800 28.840,262.800 28.400 C 262.800 27.960,262.654 27.600,262.475 27.600 C 262.296 27.600,261.902 26.970,261.600 26.200 C 261.298 25.430,260.904 24.800,260.725 24.800 C 260.546 24.800,260.400 24.480,260.400 24.088 C 260.400 23.697,260.040 23.117,259.600 22.800 C 259.160 22.483,258.800 21.986,258.800 21.695 C 258.800 21.404,258.617 20.949,258.393 20.683 C 256.874 18.882,256.400 18.243,256.400 17.997 C 256.400 16.833,245.768 7.600,244.428 7.600 C 244.193 7.600,244.000 7.420,244.000 7.200 C 244.000 6.980,243.680 6.800,243.288 6.800 C 242.897 6.800,242.317 6.440,242.000 6.000 C 241.683 5.560,241.103 5.200,240.712 5.200 C 240.320 5.200,240.000 5.064,240.000 4.898 C 240.000 4.731,239.415 4.360,238.700 4.071 C 237.985 3.783,237.087 3.379,236.705 3.174 C 236.323 2.968,235.738 2.800,235.405 2.800 C 235.072 2.800,234.800 2.620,234.800 2.400 C 234.800 2.180,234.260 2.000,233.600 2.000 C 232.940 2.000,232.400 1.840,232.400 1.644 C 232.400 1.448,231.815 1.185,231.100 1.060 C 230.385 0.936,228.810 0.659,227.600 0.446 C 225.482 0.073,27.541 -0.077,24.400 0.293 M313.600 82.800 C 313.600 83.020,312.880 83.200,312.000 83.200 C 311.120 83.200,310.400 83.380,310.400 83.600 C 310.400 83.820,309.950 84.000,309.400 84.000 C 308.850 84.000,308.400 84.150,308.400 84.332 C 308.400 84.515,307.908 84.920,307.306 85.232 C 305.794 86.017,302.000 89.849,302.000 90.591 C 302.000 90.926,301.865 91.201,301.700 91.203 C 301.341 91.207,300.400 93.144,300.400 93.880 C 300.400 94.166,300.220 94.400,300.000 94.400 C 299.737 94.400,299.600 103.867,299.600 122.000 L 299.600 149.600 263.824 149.600 C 240.404 149.600,227.962 149.738,227.800 150.000 C 227.664 150.220,227.113 150.400,226.576 150.400 C 226.039 150.400,225.600 150.580,225.600 150.800 C 225.600 151.020,225.312 151.200,224.960 151.200 C 224.609 151.200,223.838 151.695,223.248 152.300 C 222.658 152.905,221.833 153.592,221.415 153.827 C 220.996 154.061,220.461 154.599,220.227 155.021 C 219.992 155.443,219.485 156.082,219.100 156.441 C 218.715 156.800,218.400 157.388,218.400 157.747 C 218.400 158.106,218.265 158.401,218.100 158.403 C 217.694 158.407,216.800 160.386,216.800 161.280 C 216.800 161.676,216.620 162.000,216.400 162.000 C 216.157 162.000,216.000 163.792,216.000 166.576 C 216.000 169.196,216.171 171.258,216.400 171.400 C 216.620 171.536,216.800 172.087,216.800 172.624 C 216.800 173.161,216.980 173.600,217.200 173.600 C 217.420 173.600,217.600 173.960,217.600 174.400 C 217.600 174.840,217.780 175.200,218.000 175.200 C 218.220 175.200,218.400 175.473,218.400 175.807 C 218.400 176.599,223.401 181.600,224.193 181.600 C 224.527 181.600,224.800 181.780,224.800 182.000 C 224.800 182.220,225.160 182.400,225.600 182.400 C 226.040 182.400,226.400 182.580,226.400 182.800 C 226.400 183.020,226.839 183.200,227.376 183.200 C 227.913 183.200,228.464 183.380,228.600 183.600 C 228.762 183.862,241.071 184.000,264.224 184.000 L 299.600 184.000 299.600 211.400 C 299.600 229.400,299.737 238.800,300.000 238.800 C 300.220 238.800,300.400 239.250,300.400 239.800 C 300.400 240.350,300.580 240.800,300.800 240.800 C 301.020 240.800,301.200 241.120,301.200 241.512 C 301.200 241.903,301.560 242.483,302.000 242.800 C 302.440 243.117,302.800 243.613,302.800 243.902 C 302.800 244.584,305.416 247.200,306.098 247.200 C 306.387 247.200,306.883 247.560,307.200 248.000 C 307.517 248.440,308.097 248.800,308.488 248.800 C 308.880 248.800,309.200 248.980,309.200 249.200 C 309.200 249.420,309.650 249.600,310.200 249.600 C 310.750 249.600,311.200 249.780,311.200 250.000 C 311.200 250.531,321.351 250.531,322.405 250.000 C 322.842 249.780,323.560 249.420,324.000 249.200 C 325.792 248.304,326.624 247.765,327.243 247.100 C 327.601 246.715,328.070 246.400,328.286 246.400 C 328.767 246.400,396.400 178.816,396.400 178.336 C 396.400 178.147,396.940 177.428,397.600 176.737 C 398.260 176.046,398.800 175.253,398.800 174.974 C 398.800 174.695,399.025 174.392,399.300 174.300 C 399.676 174.175,399.800 172.311,399.800 166.800 C 399.800 161.289,399.676 159.425,399.300 159.300 C 399.025 159.208,398.800 158.828,398.800 158.455 C 398.800 158.082,398.440 157.517,398.000 157.200 C 397.560 156.883,397.200 156.375,397.200 156.072 C 397.200 155.294,327.417 85.600,326.639 85.600 C 326.287 85.600,326.000 85.420,326.000 85.200 C 326.000 84.980,325.640 84.800,325.200 84.800 C 324.760 84.800,324.399 84.665,324.397 84.500 C 324.392 84.020,322.340 83.200,321.144 83.200 C 320.541 83.200,319.936 83.020,319.800 82.800 C 319.664 82.580,318.213 82.400,316.576 82.400 C 314.859 82.400,313.600 82.569,313.600 82.800 " stroke="none" fill="#5f6362" fill-rule="evenodd"></path><path id="path1" d="" stroke="none" fill="#5f6362" fill-rule="evenodd"></path></g></svg>