<?xml version="1.0" standalone="no"?>
<!DOCTYPE svg PUBLIC "-//W3C//DTD SVG 20010904//EN"
 "http://www.w3.org/TR/2001/REC-SVG-20010904/DTD/svg10.dtd">
<svg version="1.0" xmlns="http://www.w3.org/2000/svg"
 width="1600.000000pt" height="1031.000000pt" viewBox="0 0 1600.000000 1031.000000"
 preserveAspectRatio="xMidYMid meet">

<g transform="translate(0.000000,1031.000000) scale(0.100000,-0.100000)"
fill="#000000" stroke="none">
<path d="M0 10300 c0 -7 2673 -10 8000 -10 5327 0 8000 3 8000 10 0 7 -2673
10 -8000 10 -5327 0 -8000 -3 -8000 -10z"/>
<path d="M7977 10258 c-8 -13 -62 -106 -120 -208 -111 -195 -191 -335 -432
-750 -155 -267 -394 -680 -428 -740 -32 -57 -207 -360 -219 -380 -7 -11 -10
-22 -7 -25 3 -3 555 -4 1226 -3 l1220 3 -55 95 c-30 52 -118 205 -195 340 -77
135 -208 362 -292 505 -155 265 -439 757 -596 1033 -85 149 -88 153 -102 130z"/>
<path d="M7785 7421 c-88 -15 -148 -92 -148 -190 0 -90 44 -158 123 -191 l31
-13 -3 -374 c-3 -361 -2 -375 16 -389 16 -11 71 -14 287 -14 l266 0 83 -227
c45 -126 89 -236 98 -245 13 -15 34 -18 144 -18 71 0 138 5 149 10 22 12 26
64 7 77 -7 4 -64 10 -126 13 l-113 5 -84 229 c-46 125 -88 233 -95 240 -7 7
-96 13 -273 16 l-262 5 -3 103 -3 102 261 0 c247 0 261 1 280 20 24 24 24 30
6 56 -13 18 -32 19 -278 24 l-263 5 -3 90 c-2 50 0 132 3 183 7 89 8 94 33
103 37 14 80 57 103 101 46 90 6 218 -81 263 -33 17 -106 24 -155 16z m128
-121 c39 -43 38 -101 -2 -141 -64 -64 -181 -21 -181 66 0 47 14 71 53 96 44
27 93 19 130 -21z"/>
<path d="M7531 6944 c-174 -76 -342 -279 -386 -466 -21 -92 -19 -266 5 -357
63 -243 268 -443 520 -507 82 -21 235 -21 320 -1 133 32 265 109 353 206 38
43 46 68 25 89 -23 23 -50 12 -116 -48 -73 -66 -144 -107 -242 -141 -93 -32
-267 -32 -360 0 -198 68 -353 231 -406 429 -19 70 -21 221 -4 293 42 182 170
338 343 419 50 24 64 48 47 80 -13 24 -49 25 -99 4z"/>
<path d="M640 5925 l0 -55 3080 0 c2910 0 3080 1 3088 18 5 9 7 27 6 40 -1 12
-2 29 -3 37 -1 13 -351 15 -3086 15 l-3085 0 0 -55z"/>
<path d="M9166 5971 c-3 -4 -2 -28 2 -52 l8 -44 3082 -3 c1695 -1 3082 1 3083
5 0 5 2 22 4 38 3 17 2 38 -1 48 -5 16 -161 17 -3089 17 -1708 0 -3086 -4
-3089 -9z"/>
<path d="M640 5685 l0 -55 3088 2 3087 3 0 50 0 50 -3088 3 -3087 2 0 -55z"/>
<path d="M9167 5733 c-4 -7 -2 -64 2 -96 1 -4 1390 -6 3087 -5 l3087 3 3 30
c2 17 2 40 -1 53 l-5 22 -3085 0 c-1696 0 -3086 -3 -3088 -7z"/>
<path d="M2154 5261 c-141 -23 -253 -80 -356 -182 -127 -127 -189 -281 -189
-472 0 -195 61 -347 191 -477 133 -133 254 -180 464 -180 214 0 333 46 467
179 129 130 189 280 189 476 0 313 -185 566 -468 640 -74 19 -227 27 -298 16z
m256 -148 c130 -35 260 -142 314 -256 102 -214 61 -475 -98 -632 -198 -195
-526 -195 -721 1 -105 104 -149 219 -148 384 0 156 40 260 142 372 119 131
323 183 511 131z"/>
<path d="M7088 5260 c-251 -45 -454 -232 -517 -474 -80 -305 59 -631 328 -774
95 -51 168 -65 321 -60 119 4 143 8 203 33 38 15 95 47 128 71 49 36 59 49 59
73 0 43 -10 61 -37 72 -20 7 -40 0 -116 -40 -127 -68 -191 -85 -292 -78 -44 3
-106 15 -138 25 -144 48 -266 178 -314 332 -21 70 -24 257 -4 315 90 263 305
407 556 373 82 -11 138 -34 205 -83 78 -57 145 -39 138 37 -3 29 -13 39 -81
85 -44 30 -107 61 -145 73 -75 23 -222 34 -294 20z"/>
<path d="M8871 5259 c-254 -45 -441 -215 -511 -463 -32 -114 -30 -280 3 -392
31 -102 58 -155 115 -224 84 -104 186 -173 308 -209 108 -32 318 -30 417 3
111 38 183 82 262 161 74 74 120 153 161 275 27 78 27 309 0 395 -66 215 -237
382 -452 439 -74 20 -232 28 -303 15z m269 -146 c166 -45 300 -184 346 -358
19 -70 18 -239 -2 -306 -67 -226 -258 -369 -490 -369 -297 1 -514 222 -514
523 0 107 22 195 69 278 113 201 357 297 591 232z"/>
<path d="M13610 5261 c-115 -13 -210 -54 -279 -121 -61 -60 -81 -108 -81 -205
0 -206 134 -321 433 -370 112 -18 195 -53 234 -99 107 -127 75 -280 -75 -353
-52 -26 -66 -28 -167 -28 -91 1 -120 5 -169 24 -57 23 -120 76 -172 147 -16
22 -29 28 -57 28 -37 0 -77 -26 -77 -51 0 -29 45 -100 92 -145 61 -59 114 -90
201 -118 60 -20 85 -22 205 -18 134 4 139 5 213 40 94 46 157 111 188 194 19
49 22 74 19 149 -6 126 -47 205 -142 270 -67 46 -138 70 -282 94 -198 34 -285
93 -300 203 -13 91 31 161 123 199 48 20 75 24 163 24 95 0 110 -3 163 -28 33
-17 69 -44 85 -65 53 -69 79 -92 110 -92 35 0 62 27 62 62 0 32 -51 109 -103
154 -101 87 -230 122 -387 105z"/>
<path d="M663 5235 l-23 -16 0 -614 0 -614 22 -15 c30 -21 71 -20 99 3 24 19
24 24 29 228 l5 208 180 5 c197 6 240 15 323 74 54 38 114 116 138 181 29 77
27 240 -5 323 -32 85 -115 171 -207 214 l-69 33 -235 3 c-204 3 -238 1 -257
-13z m502 -149 c58 -29 112 -86 136 -146 8 -20 14 -68 14 -115 -1 -69 -5 -87
-29 -133 -16 -28 -43 -63 -61 -76 -66 -51 -100 -59 -272 -64 l-163 -4 0 287 0
288 160 -5 c147 -5 164 -7 215 -32z"/>
<path d="M3229 5231 l-24 -19 0 -607 0 -607 24 -20 c24 -18 38 -19 315 -16
258 4 296 6 336 23 154 65 236 178 247 339 4 68 2 90 -17 140 -28 72 -91 136
-166 167 -48 20 -70 39 -45 39 20 0 104 87 126 131 35 69 35 172 -1 249 -29
64 -61 100 -124 140 -80 51 -138 60 -406 60 -223 0 -244 -1 -265 -19z m496
-122 c130 -22 180 -77 180 -194 -1 -90 -26 -136 -94 -168 -43 -20 -60 -22
-251 -22 l-205 0 -3 175 c-1 96 0 185 3 198 5 22 8 22 157 22 83 0 179 -5 213
-11z m108 -553 c94 -34 146 -107 147 -207 0 -104 -41 -177 -125 -222 -38 -21
-53 -22 -270 -22 l-230 0 -3 210 c-1 116 0 220 3 233 5 22 5 22 223 22 155 -1
228 -5 255 -14z"/>
<path d="M4421 5224 c-21 -26 -21 -35 -21 -619 0 -584 0 -593 21 -619 l20 -26
383 0 c358 0 384 1 399 18 23 25 22 85 -1 105 -16 15 -58 17 -343 19 l-324 3
-5 553 -5 554 -24 19 c-34 27 -75 24 -100 -7z"/>
<path d="M5843 5235 c-13 -9 -60 -107 -126 -262 -176 -413 -378 -904 -383
-932 -8 -37 28 -81 66 -81 46 0 67 28 123 165 l53 130 309 0 309 0 52 -128
c29 -71 60 -137 70 -148 38 -42 124 -7 124 51 0 13 -57 156 -126 319 -237 560
-291 686 -337 799 -39 94 -83 123 -134 87z m175 -545 c68 -166 120 -305 117
-310 -8 -13 -492 -13 -499 -1 -8 12 237 611 249 611 6 0 66 -135 133 -300z"/>
<path d="M7921 5224 c-21 -26 -21 -35 -21 -621 l0 -594 25 -24 c30 -31 77 -33
105 -5 20 20 20 33 20 623 l0 604 -23 21 c-33 31 -80 29 -106 -4z"/>
<path d="M9959 5231 l-24 -19 0 -605 c0 -581 1 -606 19 -626 28 -31 79 -28
105 5 21 26 21 36 21 505 0 265 4 479 9 479 4 0 99 -120 210 -267 552 -734
554 -738 593 -741 29 -2 40 2 57 24 21 26 21 31 21 619 0 584 0 593 -21 619
-25 32 -70 35 -99 6 -19 -19 -20 -33 -20 -505 0 -381 -3 -485 -12 -485 -7 0
-92 107 -188 236 -96 130 -195 262 -220 294 -25 31 -114 148 -198 259 -84 110
-162 205 -172 211 -28 15 -55 12 -81 -9z"/>
<path d="M11342 5232 c-12 -12 -24 -36 -27 -54 -3 -18 -5 -291 -3 -606 l3
-574 25 -20 c23 -19 36 -20 260 -15 200 3 244 7 295 24 212 70 351 213 410
423 26 91 27 310 1 395 -62 203 -208 352 -410 417 -51 17 -98 21 -297 25 -229
5 -237 5 -257 -15z m459 -122 c175 -33 330 -187 374 -371 48 -207 -18 -417
-173 -542 -106 -85 -184 -107 -394 -107 l-148 0 0 515 0 515 144 0 c79 0 168
-5 197 -10z"/>
<path d="M14219 5229 c-16 -16 -19 -27 -13 -51 7 -32 126 -317 261 -623 41
-93 113 -258 160 -365 46 -107 93 -203 104 -212 30 -26 75 -23 94 5 8 13 49
102 91 198 42 95 110 251 151 344 184 418 266 613 273 649 6 31 4 42 -11 57
-24 24 -81 25 -102 2 -8 -10 -65 -137 -126 -283 -248 -594 -317 -754 -327
-757 -6 -2 -103 220 -220 503 -115 278 -219 517 -231 530 -28 30 -75 32 -104
3z"/>
<path d="M12535 4460 c-10 -11 -18 -34 -18 -50 0 -16 8 -39 18 -50 17 -19 30
-20 234 -20 249 0 261 3 261 70 0 67 -12 70 -261 70 -204 0 -217 -1 -234 -20z"/>
<path d="M3877 3153 c-25 -43 -96 -168 -159 -278 -63 -110 -212 -366 -330
-570 -118 -203 -279 -482 -358 -620 -79 -137 -188 -326 -242 -420 l-99 -170
5297 -3 c2914 -1 5299 0 5302 3 3 2 0 10 -5 17 -6 7 -116 198 -246 423 -129
226 -273 475 -319 555 -197 338 -292 503 -468 810 l-187 325 -4071 3 -4070 2
-45 -77z"/>
</g>
</svg>
